<svg id="Layer_2" data-name="Layer 2" xmlns="http://www.w3.org/2000/svg" viewBox="0 0 50 50"><defs><style>.cls-1{fill:#e6e6e6;}</style></defs><title>Book</title><circle class="cls-1" cx="17.6" cy="32.18" r="2.06"/><circle class="cls-1" cx="22.56" cy="32.18" r="2.06"/><circle class="cls-1" cx="27.51" cy="32.18" r="2.06"/><circle class="cls-1" cx="32.47" cy="32.18" r="2.06"/><path class="cls-1" d="M18,28.06a2.07,2.07,0,1,0,3.11-1.78,9.6,9.6,0,0,1-2.78.68A2.06,2.06,0,0,0,18,28.06Z"/><circle class="cls-1" cx="25.03" cy="28.06" r="2.06"/><circle class="cls-1" cx="29.99" cy="28.06" r="2.06"/><path class="cls-1" d="M22,25.89a2,2,0,0,0,.61.1,2.06,2.06,0,0,0,2.06-2.06c0-.05,0-.1,0-.15A9.72,9.72,0,0,1,22,25.89Z"/><circle class="cls-1" cx="27.51" cy="23.93" r="2.06"/><circle class="cls-1" cx="15.12" cy="36.31" r="2.06"/><circle class="cls-1" cx="20.08" cy="36.31" r="2.06"/><circle class="cls-1" cx="25.03" cy="36.31" r="2.06"/><circle class="cls-1" cx="29.99" cy="36.31" r="2.06"/><circle class="cls-1" cx="34.94" cy="36.31" r="2.06"/><path class="cls-1" d="M41.87,39.36l-16-27.72a1,1,0,0,0-1.24-.39A9.44,9.44,0,0,1,27,17.5a.34.34,0,0,1,0,.1L39.27,38.86H10.73L17.58,27H17.5a9.56,9.56,0,0,1-2.09-.24L8.13,39.36a1,1,0,0,0,0,1,1,1,0,0,0,.87.5H41a1,1,0,0,0,.87-.5A1,1,0,0,0,41.87,39.36Z"/><path class="cls-1" d="M11,13.75A7.5,7.5,0,1,0,21.26,11,7.5,7.5,0,0,0,11,13.75Zm9.36.79-4,6.93a1,1,0,0,1-1.37.36,1,1,0,0,1-.36-1.36l4-6.93a1,1,0,1,1,1.74,1Z"/></svg>