<svg id="Layer_2" data-name="Layer 2" xmlns="http://www.w3.org/2000/svg" viewBox="0 0 50 50"><defs><style>.cls-1{fill:#e6e6e6;}</style></defs><title>Foul</title><path class="cls-1" d="M17.5,10A7.5,7.5,0,1,0,25,17.5,7.5,7.5,0,0,0,17.5,10Zm3.13,9.34A1,1,0,0,1,19.9,21a1,1,0,0,1-.72-.31L17.5,19l-1.68,1.77a1,1,0,0,1-.72.31,1,1,0,0,1-.73-1.69l1.75-1.84-1.75-1.84a1,1,0,0,1,0-1.42,1,1,0,0,1,1.41,0l1.68,1.77,1.68-1.77a1,1,0,0,1,1.41,0,1,1,0,0,1,0,1.42L18.88,17.5Z"/><path class="cls-1" d="M25,10c-.53,0-1.06,0-1.58.08A9.5,9.5,0,0,1,25.24,12,13,13,0,1,1,12,25.24a9.79,9.79,0,0,1-1.93-1.82c-.05.52-.08,1-.08,1.58A15,15,0,1,0,25,10Z"/></svg>