<svg id="Layer_1" data-name="Layer 1" xmlns="http://www.w3.org/2000/svg" viewBox="0 0 384.16 103"><defs><style>.cls-1{fill:#f2f2f2;}.cls-2{fill:#66b0bd;}.cls-3{fill:#e6e6e6;}</style></defs><title>logo</title><polygon class="cls-1" points="345.07 52.72 334.97 59.41 276.06 7 215.47 48.9 201.16 38.02 181.73 67 197.1 67 205.37 53.92 222.2 57.27 230.61 43.88 237.35 60.61 242.4 42.2 249.97 48.06 259 32 268.49 38.02 275 28 292.89 53.86 303 42 333 70 345.07 65.27 367.99 98 381.26 98 345.07 52.72"/><polygon class="cls-2" points="341.07 50.72 330.97 57.41 272.06 5 211.47 46.9 197.16 36.02 177.73 65 193.1 65 201.37 51.92 218.2 55.27 226.61 41.88 233.35 58.61 238.4 40.2 245.97 46.06 255 30 264.49 36.02 271 26 288.89 51.86 299 40 329 68 341.07 63.27 363.99 96 377.26 96 341.07 50.72"/><polygon class="cls-3" points="329.09 70 5.09 70 5.09 69 328.09 69 329.09 70"/><path class="cls-3" d="M6.91,61.56a1.16,1.16,0,0,0,.38.44,1.56,1.56,0,0,0,.55.26,2.84,2.84,0,0,0,.66.08,3,3,0,0,0,.5,0,1.4,1.4,0,0,0,.49-.15,1.14,1.14,0,0,0,.39-.3.77.77,0,0,0,.15-.49.73.73,0,0,0-.2-.52,1.77,1.77,0,0,0-.54-.33,7.54,7.54,0,0,0-.75-.23c-.27-.06-.56-.14-.84-.22a6.14,6.14,0,0,1-.86-.27,2.72,2.72,0,0,1-.75-.41,1.9,1.9,0,0,1-.53-.63,1.87,1.87,0,0,1-.21-.92,2.1,2.1,0,0,1,.26-1A2.3,2.3,0,0,1,6.29,56a2.76,2.76,0,0,1,1-.44,3.81,3.81,0,0,1,1-.15,5,5,0,0,1,1.18.14,2.81,2.81,0,0,1,1,.45,2.19,2.19,0,0,1,.7.78A2.45,2.45,0,0,1,11.44,58H9.77a1.54,1.54,0,0,0-.15-.58A1,1,0,0,0,9.28,57a1.46,1.46,0,0,0-.48-.19,2.65,2.65,0,0,0-.58-.06,2,2,0,0,0-.42.05,1.16,1.16,0,0,0-.38.15.93.93,0,0,0-.28.28.69.69,0,0,0-.11.42.81.81,0,0,0,.08.37.78.78,0,0,0,.35.26,3.45,3.45,0,0,0,.72.25l1.19.31A5.79,5.79,0,0,1,10,59a3.07,3.07,0,0,1,.78.37,2.52,2.52,0,0,1,.66.68,1.88,1.88,0,0,1,.28,1.08,2.36,2.36,0,0,1-.21,1,2.09,2.09,0,0,1-.62.8,2.73,2.73,0,0,1-1,.52,4.69,4.69,0,0,1-1.42.19,4.71,4.71,0,0,1-1.25-.16A3.15,3.15,0,0,1,6.1,63a2.63,2.63,0,0,1-.75-.87,2.59,2.59,0,0,1-.26-1.25H6.76A1.38,1.38,0,0,0,6.91,61.56Z"/><path class="cls-3" d="M14,57.81v.79h0a1.77,1.77,0,0,1,.77-.72,2.23,2.23,0,0,1,1-.23,2.68,2.68,0,0,1,1,.17,1.66,1.66,0,0,1,.64.48,1.81,1.81,0,0,1,.32.73,4.78,4.78,0,0,1,.09,1v3.49H16.33V60.28a2,2,0,0,0-.22-1.05.84.84,0,0,0-.78-.34,1.06,1.06,0,0,0-.92.38,2.07,2.07,0,0,0-.29,1.24v3H12.56V57.81Z"/><path class="cls-3" d="M20.75,62.13a1.41,1.41,0,0,0,1,.34,1.45,1.45,0,0,0,.81-.23,1,1,0,0,0,.42-.51h1.37a2.6,2.6,0,0,1-1,1.47,3,3,0,0,1-1.65.44,3.11,3.11,0,0,1-1.21-.22,2.4,2.4,0,0,1-.91-.61,2.81,2.81,0,0,1-.58-.94,3.61,3.61,0,0,1-.2-1.21A3.31,3.31,0,0,1,19,59.47a2.72,2.72,0,0,1,.59-.95,2.87,2.87,0,0,1,.92-.64,3,3,0,0,1,1.18-.23,2.8,2.8,0,0,1,1.27.28,2.49,2.49,0,0,1,.88.76,3,3,0,0,1,.5,1.08A3.76,3.76,0,0,1,24.47,61h-4.1A1.59,1.59,0,0,0,20.75,62.13Zm1.77-3a1.08,1.08,0,0,0-.85-.31,1.27,1.27,0,0,0-.62.13,1.16,1.16,0,0,0-.4.31,1.19,1.19,0,0,0-.21.4,2,2,0,0,0-.07.37h2.54A1.71,1.71,0,0,0,22.52,59.14Z"/><path class="cls-3" d="M25.33,59.56a1.76,1.76,0,0,1,.28-.92,1.88,1.88,0,0,1,.61-.58,2.56,2.56,0,0,1,.84-.31,5,5,0,0,1,.94-.1,6.36,6.36,0,0,1,.87.06,2.63,2.63,0,0,1,.81.24,1.57,1.57,0,0,1,.59.49,1.41,1.41,0,0,1,.23.83v3a5.9,5.9,0,0,0,0,.74,1.33,1.33,0,0,0,.16.52H29.11c0-.08-.05-.17-.07-.27A2.51,2.51,0,0,1,29,63a2,2,0,0,1-.88.53,3.26,3.26,0,0,1-1,.16,3.1,3.1,0,0,1-.76-.1,1.76,1.76,0,0,1-.61-.31,1.38,1.38,0,0,1-.42-.53,1.75,1.75,0,0,1-.15-.76,1.68,1.68,0,0,1,.17-.79,1.54,1.54,0,0,1,.44-.5,1.84,1.84,0,0,1,.62-.28,4.15,4.15,0,0,1,.7-.15l.69-.09a4.57,4.57,0,0,0,.61-.1,1.16,1.16,0,0,0,.42-.19.43.43,0,0,0,.14-.37.89.89,0,0,0-.08-.4.61.61,0,0,0-.22-.23.72.72,0,0,0-.32-.11,2.38,2.38,0,0,0-.39,0,1.15,1.15,0,0,0-.73.2.87.87,0,0,0-.31.66Zm3.61,1.15a.68.68,0,0,1-.25.14l-.32.08L28,61l-.37,0a2.25,2.25,0,0,0-.35.09,1.13,1.13,0,0,0-.29.15.66.66,0,0,0-.21.23.82.82,0,0,0-.07.37.75.75,0,0,0,.07.35.58.58,0,0,0,.21.23,1,1,0,0,0,.31.11,2.19,2.19,0,0,0,.36,0,1.43,1.43,0,0,0,.72-.15,1,1,0,0,0,.37-.37,1.23,1.23,0,0,0,.15-.43,2.87,2.87,0,0,0,0-.36Z"/><path class="cls-3" d="M33.42,55.64v4.21l2-2h1.85L35.09,59.9l2.38,3.59H35.58L34,61l-.6.59v2H31.85V55.64Z"/><path class="cls-3" d="M40.13,65.19a2.28,2.28,0,0,1-1.26.3l-.48,0-.48,0V64.14l.46,0a3.49,3.49,0,0,0,.46,0,.59.59,0,0,0,.45-.24.8.8,0,0,0,.15-.47,1,1,0,0,0-.06-.35l-2-5.33H39l1.28,3.89h0l1.25-3.89h1.62L40.83,64.2A2,2,0,0,1,40.13,65.19Z"/><path class="cls-3" d="M50.5,55.64a3.11,3.11,0,0,1,1.25.22,2.25,2.25,0,0,1,.84.56,2.19,2.19,0,0,1,.48.8,3,3,0,0,1,.15.94,3,3,0,0,1-.15.93,2.2,2.2,0,0,1-1.32,1.37,3.11,3.11,0,0,1-1.25.22H48.68v2.81H47V55.64ZM50,59.34a3.68,3.68,0,0,0,.58-.05,1.25,1.25,0,0,0,.48-.17.91.91,0,0,0,.34-.36,1.28,1.28,0,0,0,.12-.6,1.35,1.35,0,0,0-.12-.61,1,1,0,0,0-.34-.35A1.25,1.25,0,0,0,50.6,57,3.68,3.68,0,0,0,50,57H48.68v2.36Z"/><path class="cls-3" d="M55.8,62.13a1.37,1.37,0,0,0,1,.34,1.46,1.46,0,0,0,.82-.23,1,1,0,0,0,.41-.51h1.38a2.64,2.64,0,0,1-1,1.47,3,3,0,0,1-1.65.44,3.11,3.11,0,0,1-1.21-.22,2.43,2.43,0,0,1-.92-.61,2.64,2.64,0,0,1-.57-.94,3.38,3.38,0,0,1-.21-1.21,3.31,3.31,0,0,1,.21-1.19,2.75,2.75,0,0,1,.6-.95,2.82,2.82,0,0,1,.91-.64,3,3,0,0,1,1.19-.23,2.78,2.78,0,0,1,1.26.28,2.53,2.53,0,0,1,.89.76,3.15,3.15,0,0,1,.5,1.08A4,4,0,0,1,59.52,61H55.41A1.59,1.59,0,0,0,55.8,62.13Zm1.77-3a1.1,1.1,0,0,0-.86-.31,1.29,1.29,0,0,0-.62.13,1.12,1.12,0,0,0-.39.31,1.19,1.19,0,0,0-.21.4,2.07,2.07,0,0,0-.08.37H58A1.88,1.88,0,0,0,57.57,59.14Z"/><path class="cls-3" d="M60.38,59.56a1.85,1.85,0,0,1,.27-.92,1.91,1.91,0,0,1,.62-.58,2.56,2.56,0,0,1,.84-.31,4.92,4.92,0,0,1,.94-.1,6.58,6.58,0,0,1,.87.06,2.57,2.57,0,0,1,.8.24,1.57,1.57,0,0,1,.59.49,1.34,1.34,0,0,1,.24.83v3a5.9,5.9,0,0,0,0,.74,1.35,1.35,0,0,0,.15.52H64.16a1.76,1.76,0,0,1-.07-.27,2.51,2.51,0,0,1,0-.27,2,2,0,0,1-.88.53,3.31,3.31,0,0,1-1,.16,3,3,0,0,1-.76-.1,1.81,1.81,0,0,1-.62-.31,1.35,1.35,0,0,1-.41-.53,1.75,1.75,0,0,1-.15-.76,1.68,1.68,0,0,1,.17-.79,1.34,1.34,0,0,1,.44-.5,1.84,1.84,0,0,1,.62-.28,4.26,4.26,0,0,1,.69-.15l.7-.09a4.15,4.15,0,0,0,.6-.1,1,1,0,0,0,.42-.19.43.43,0,0,0,.14-.37.77.77,0,0,0-.08-.4.54.54,0,0,0-.22-.23.68.68,0,0,0-.32-.11,2.38,2.38,0,0,0-.39,0,1.1,1.1,0,0,0-.72.2.87.87,0,0,0-.31.66ZM64,60.71a.57.57,0,0,1-.24.14l-.32.08-.36.06-.37,0a2,2,0,0,0-.35.09,1.4,1.4,0,0,0-.3.15.74.74,0,0,0-.2.23.81.81,0,0,0-.08.37.75.75,0,0,0,.08.35.58.58,0,0,0,.21.23,1,1,0,0,0,.31.11,2,2,0,0,0,.36,0,1.39,1.39,0,0,0,.71-.15,1,1,0,0,0,.38-.37,1.23,1.23,0,0,0,.15-.43c0-.15,0-.27,0-.36Z"/><path class="cls-3" d="M68.46,55.64v4.21l2-2h1.85L70.13,59.9l2.39,3.59H70.63L69.07,61l-.61.59v2H66.9V55.64Z"/><path class="cls-3" d="M79.43,59.82v1.34H76.12V59.82Z"/><path class="cls-3" d="M87.52,55.64a4.67,4.67,0,0,1,1,.1,2.34,2.34,0,0,1,.79.32,1.49,1.49,0,0,1,.51.6,2.14,2.14,0,0,1,.18.93,1.74,1.74,0,0,1-.27,1,2,2,0,0,1-.8.65,1.88,1.88,0,0,1,1.09.73,2.17,2.17,0,0,1,.36,1.26,2.12,2.12,0,0,1-.24,1,2,2,0,0,1-.62.71,2.78,2.78,0,0,1-.89.4,3.88,3.88,0,0,1-1,.13h-3.8V55.64Zm-.22,3.18a1.22,1.22,0,0,0,.76-.22.84.84,0,0,0,.3-.72.88.88,0,0,0-.1-.45.75.75,0,0,0-.26-.27,1.15,1.15,0,0,0-.38-.14,3.27,3.27,0,0,0-.45,0H85.55v1.84Zm.1,3.33a2,2,0,0,0,.49,0,1,1,0,0,0,.4-.16.8.8,0,0,0,.28-.32,1.06,1.06,0,0,0,.11-.5,1,1,0,0,0-.34-.86,1.42,1.42,0,0,0-.9-.26H85.55v2.15Z"/><path class="cls-3" d="M91.45,56.93V55.64H93v1.29Zm1.56.88v5.68H91.45V57.81Z"/><path class="cls-3" d="M95.85,55.64v7.85H94.29V55.64Z"/><path class="cls-3" d="M98.69,55.64v7.85H97.13V55.64Z"/><path class="cls-3" d="M99.85,59.56a2,2,0,0,1,.28-.92,1.91,1.91,0,0,1,.62-.58,2.4,2.4,0,0,1,.84-.31,4.92,4.92,0,0,1,.94-.1,6.58,6.58,0,0,1,.87.06,2.57,2.57,0,0,1,.8.24,1.57,1.57,0,0,1,.59.49,1.34,1.34,0,0,1,.23.83v3a5.87,5.87,0,0,0,0,.74,1.35,1.35,0,0,0,.15.52h-1.58a1.76,1.76,0,0,1-.07-.27,2.51,2.51,0,0,1,0-.27,2,2,0,0,1-.88.53,3.32,3.32,0,0,1-1,.16,3.1,3.1,0,0,1-.76-.1,1.85,1.85,0,0,1-.61-.31,1.35,1.35,0,0,1-.41-.53,1.75,1.75,0,0,1-.15-.76,1.57,1.57,0,0,1,.17-.79,1.34,1.34,0,0,1,.44-.5,1.79,1.79,0,0,1,.61-.28,4.62,4.62,0,0,1,.7-.15l.7-.09a4.68,4.68,0,0,0,.6-.1,1,1,0,0,0,.42-.19.43.43,0,0,0,.14-.37.89.89,0,0,0-.08-.4.61.61,0,0,0-.22-.23.68.68,0,0,0-.32-.11,2.38,2.38,0,0,0-.39,0,1.15,1.15,0,0,0-.73.2.9.9,0,0,0-.3.66Zm3.61,1.15a.63.63,0,0,1-.24.14l-.32.08-.36.06-.38,0a2.14,2.14,0,0,0-.34.09,1.05,1.05,0,0,0-.3.15.74.74,0,0,0-.2.23.81.81,0,0,0-.08.37.75.75,0,0,0,.08.35.58.58,0,0,0,.21.23.89.89,0,0,0,.3.11,2.22,2.22,0,0,0,.37,0,1.39,1.39,0,0,0,.71-.15,1,1,0,0,0,.52-.8,2.87,2.87,0,0,0,0-.36Z"/><path class="cls-3" d="M107.72,57.81v1h0a1.8,1.8,0,0,1,.3-.49,2,2,0,0,1,.43-.38,2,2,0,0,1,.51-.25,1.9,1.9,0,0,1,.58-.09,1.16,1.16,0,0,1,.34.06v1.45l-.27,0h-.29a1.61,1.61,0,0,0-.73.14,1.15,1.15,0,0,0-.48.39,1.54,1.54,0,0,0-.26.58,3.17,3.17,0,0,0-.07.71v2.56h-1.57V57.81Z"/><path class="cls-3" d="M114.35,62.77a1.53,1.53,0,0,1-.72.66,2.33,2.33,0,0,1-1,.21,2.54,2.54,0,0,1-1.13-.25,2.24,2.24,0,0,1-.79-.67,3.14,3.14,0,0,1-.48-1,4.37,4.37,0,0,1-.16-1.15,4,4,0,0,1,.16-1.1,2.88,2.88,0,0,1,.48-.94,2.27,2.27,0,0,1,.78-.66,2.41,2.41,0,0,1,1.1-.25,2.11,2.11,0,0,1,1,.22,1.66,1.66,0,0,1,.73.63h0V55.64h1.56v7.85h-1.49v-.72ZM114.29,60a1.62,1.62,0,0,0-.23-.57,1.34,1.34,0,0,0-.41-.41,1.24,1.24,0,0,0-.64-.15,1.3,1.3,0,0,0-.65.15,1.18,1.18,0,0,0-.42.41,1.57,1.57,0,0,0-.23.58,3,3,0,0,0-.07.68,3,3,0,0,0,.07.66,1.79,1.79,0,0,0,.25.58,1.23,1.23,0,0,0,.43.42,1.12,1.12,0,0,0,.62.16,1.24,1.24,0,0,0,.64-.15,1.27,1.27,0,0,0,.42-.41,2.18,2.18,0,0,0,.22-.59,3.85,3.85,0,0,0,.06-.69A3.63,3.63,0,0,0,114.29,60Z"/><path class="cls-3" d="M121.58,61.56A1.16,1.16,0,0,0,122,62a1.64,1.64,0,0,0,.55.26,2.91,2.91,0,0,0,1.16,0,1.4,1.4,0,0,0,.49-.15,1,1,0,0,0,.39-.3.77.77,0,0,0,.15-.49.69.69,0,0,0-.2-.52,1.71,1.71,0,0,0-.53-.33,7.54,7.54,0,0,0-.75-.23c-.28-.06-.56-.14-.85-.22a6.59,6.59,0,0,1-.86-.27,2.72,2.72,0,0,1-.75-.41,2.17,2.17,0,0,1-.53-.63,2.23,2.23,0,0,1,.06-2A2.17,2.17,0,0,1,121,56a2.85,2.85,0,0,1,1-.44,3.82,3.82,0,0,1,1.06-.15,5.08,5.08,0,0,1,1.18.14,2.84,2.84,0,0,1,1,.45,2.1,2.1,0,0,1,.7.78,2.45,2.45,0,0,1,.26,1.16h-1.67a1.54,1.54,0,0,0-.15-.58A1,1,0,0,0,124,57a1.46,1.46,0,0,0-.48-.19,2.74,2.74,0,0,0-.59-.06,2,2,0,0,0-.42.05,1.16,1.16,0,0,0-.38.15,1.07,1.07,0,0,0-.28.28.77.77,0,0,0-.11.42.7.7,0,0,0,.09.37.74.74,0,0,0,.34.26,3.93,3.93,0,0,0,.72.25l1.19.31a5.79,5.79,0,0,1,.61.15,3.07,3.07,0,0,1,.78.37,2.26,2.26,0,0,1,.66.68,1.89,1.89,0,0,1,.29,1.08,2.52,2.52,0,0,1-.21,1,2.12,2.12,0,0,1-.63.8,2.73,2.73,0,0,1-1,.52,4.67,4.67,0,0,1-1.41.19,4.84,4.84,0,0,1-1.26-.16,3.15,3.15,0,0,1-1.08-.5,2.49,2.49,0,0,1-.74-.87,2.59,2.59,0,0,1-.27-1.25h1.68A1.38,1.38,0,0,0,121.58,61.56Z"/><path class="cls-3" d="M127.27,59.42a2.63,2.63,0,0,1,.59-1,2.71,2.71,0,0,1,.92-.6,3.47,3.47,0,0,1,2.43,0,2.66,2.66,0,0,1,.93.6,2.63,2.63,0,0,1,.59,1,3.74,3.74,0,0,1,0,2.47,2.59,2.59,0,0,1-.59.94,2.66,2.66,0,0,1-.93.6,3.62,3.62,0,0,1-2.43,0,2.71,2.71,0,0,1-.92-.6,2.59,2.59,0,0,1-.59-.94,3.74,3.74,0,0,1,0-2.47Zm1.41,1.9a1.91,1.91,0,0,0,.23.59,1.37,1.37,0,0,0,.42.41,1.34,1.34,0,0,0,.66.15,1.36,1.36,0,0,0,.67-.15,1.3,1.3,0,0,0,.43-.41,1.9,1.9,0,0,0,.22-.59,2.9,2.9,0,0,0,.07-.66,3,3,0,0,0-.07-.67,1.81,1.81,0,0,0-.22-.59,1.3,1.3,0,0,0-.43-.41,1.26,1.26,0,0,0-.67-.16,1.24,1.24,0,0,0-.66.16,1.37,1.37,0,0,0-.42.41,1.82,1.82,0,0,0-.23.59,3.71,3.71,0,0,0-.06.67A3.6,3.6,0,0,0,128.68,61.32Z"/><path class="cls-3" d="M133.36,58.85v-1h.94v-.44a1.7,1.7,0,0,1,.47-1.25,1.91,1.91,0,0,1,1.43-.48l.42,0,.4,0v1.17a5.17,5.17,0,0,0-.57,0A.62.62,0,0,0,136,57a.71.71,0,0,0-.13.5v.34h1.07v1h-1.07v4.64H134.3V58.85Z"/><path class="cls-3" d="M140.74,57.81v1H139.6v2.82a.77.77,0,0,0,.13.53.75.75,0,0,0,.53.13h.25l.23,0v1.2a2.81,2.81,0,0,1-.44,0h-.47a5.09,5.09,0,0,1-.69,0,1.6,1.6,0,0,1-.57-.19,1,1,0,0,1-.39-.41,1.41,1.41,0,0,1-.14-.69V58.85h-.95v-1H138V56.1h1.56v1.71Z"/><path class="cls-3" d="M146.38,63.49l-1-3.81h0l-1,3.81h-1.62L141,57.81h1.65l1,3.86h0l.94-3.86h1.52l1,3.85h0l1.05-3.85h1.6L148,63.49Z"/><path class="cls-3" d="M150.38,59.56a1.85,1.85,0,0,1,.27-.92,1.91,1.91,0,0,1,.62-.58,2.56,2.56,0,0,1,.84-.31,4.92,4.92,0,0,1,.94-.1,6.36,6.36,0,0,1,.87.06,2.57,2.57,0,0,1,.8.24,1.69,1.69,0,0,1,.6.49,1.41,1.41,0,0,1,.23.83v3a5.9,5.9,0,0,0,0,.74,1.35,1.35,0,0,0,.15.52h-1.58a1.76,1.76,0,0,1-.07-.27,2.51,2.51,0,0,1,0-.27,2,2,0,0,1-.88.53,3.31,3.31,0,0,1-1,.16,3,3,0,0,1-.76-.1,1.81,1.81,0,0,1-.62-.31,1.45,1.45,0,0,1-.41-.53,1.75,1.75,0,0,1-.15-.76,1.68,1.68,0,0,1,.17-.79,1.34,1.34,0,0,1,.44-.5,1.84,1.84,0,0,1,.62-.28,4.15,4.15,0,0,1,.7-.15l.69-.09a4.15,4.15,0,0,0,.6-.1,1,1,0,0,0,.42-.19.43.43,0,0,0,.14-.37.77.77,0,0,0-.08-.4.54.54,0,0,0-.22-.23.68.68,0,0,0-.32-.11,2.38,2.38,0,0,0-.39,0,1.1,1.1,0,0,0-.72.2.87.87,0,0,0-.31.66Zm3.6,1.15a.57.57,0,0,1-.24.14l-.32.08-.36.06-.37,0a2,2,0,0,0-.35.09,1.4,1.4,0,0,0-.3.15.74.74,0,0,0-.2.23.81.81,0,0,0-.08.37.75.75,0,0,0,.08.35.58.58,0,0,0,.21.23,1,1,0,0,0,.31.11,2,2,0,0,0,.36,0,1.36,1.36,0,0,0,.71-.15,1,1,0,0,0,.38-.37,1.23,1.23,0,0,0,.15-.43,2.57,2.57,0,0,0,0-.36Z"/><path class="cls-3" d="M158.24,57.81v1h0a2.48,2.48,0,0,1,.3-.49A2,2,0,0,1,159,58a1.92,1.92,0,0,1,.52-.25,1.79,1.79,0,0,1,.57-.09,1.11,1.11,0,0,1,.34.06v1.45l-.26,0h-.3a1.61,1.61,0,0,0-.73.14,1.15,1.15,0,0,0-.48.39,1.53,1.53,0,0,0-.25.58,2.66,2.66,0,0,0-.08.71v2.56h-1.56V57.81Z"/><path class="cls-3" d="M162.51,62.13a1.37,1.37,0,0,0,1,.34,1.46,1.46,0,0,0,.82-.23,1,1,0,0,0,.41-.51h1.38a2.64,2.64,0,0,1-1,1.47,3,3,0,0,1-1.65.44,3.11,3.11,0,0,1-1.21-.22,2.43,2.43,0,0,1-.92-.61,2.64,2.64,0,0,1-.57-.94,3.38,3.38,0,0,1-.21-1.21,3.31,3.31,0,0,1,.21-1.19,2.75,2.75,0,0,1,.6-.95,2.82,2.82,0,0,1,.91-.64,3,3,0,0,1,1.19-.23,2.78,2.78,0,0,1,1.26.28,2.53,2.53,0,0,1,.89.76,3.15,3.15,0,0,1,.5,1.08,4,4,0,0,1,.11,1.26h-4.11A1.59,1.59,0,0,0,162.51,62.13Zm1.77-3a1.1,1.1,0,0,0-.86-.31,1.29,1.29,0,0,0-.62.13,1.12,1.12,0,0,0-.39.31,1.19,1.19,0,0,0-.21.4,2.07,2.07,0,0,0-.08.37h2.55A1.88,1.88,0,0,0,164.28,59.14Z"/><path class="cls-3" d="M9.94,92.33a3.48,3.48,0,0,0,1,1.19,4.32,4.32,0,0,0,1.49.67,6.79,6.79,0,0,0,1.76.23,9.27,9.27,0,0,0,1.33-.11,4.5,4.5,0,0,0,1.32-.4,2.9,2.9,0,0,0,1-.8,2.07,2.07,0,0,0,.41-1.31,1.85,1.85,0,0,0-.55-1.39,4.36,4.36,0,0,0-1.42-.88,15.84,15.84,0,0,0-2-.62c-.75-.17-1.5-.37-2.27-.58a19.69,19.69,0,0,1-2.29-.73,7.72,7.72,0,0,1-2-1.1,5.1,5.1,0,0,1-1.43-1.69,5.17,5.17,0,0,1-.54-2.46,5.55,5.55,0,0,1,.69-2.81,6.23,6.23,0,0,1,1.81-2,8,8,0,0,1,2.53-1.18A10.94,10.94,0,0,1,13.65,76a13.09,13.09,0,0,1,3.16.37,7.86,7.86,0,0,1,2.7,1.19,6.06,6.06,0,0,1,1.86,2.1,6.5,6.5,0,0,1,.69,3.11H17.59a3.8,3.8,0,0,0-.39-1.56,2.63,2.63,0,0,0-.9-1,3.53,3.53,0,0,0-1.28-.5,7.75,7.75,0,0,0-1.57-.15,5.26,5.26,0,0,0-1.12.12,3,3,0,0,0-1,.41,2.61,2.61,0,0,0-.75.73A2,2,0,0,0,10.27,82a2,2,0,0,0,.23,1,2.14,2.14,0,0,0,.93.71,13,13,0,0,0,1.91.65l3.19.82c.4.08.94.22,1.64.43a7.63,7.63,0,0,1,2.07,1A6.27,6.27,0,0,1,22,88.37a5.14,5.14,0,0,1,.75,2.9A6.5,6.5,0,0,1,22.21,94a5.77,5.77,0,0,1-1.66,2.13,7.94,7.94,0,0,1-2.74,1.39A12.64,12.64,0,0,1,14,98a13.39,13.39,0,0,1-3.36-.42,8.62,8.62,0,0,1-2.89-1.34,6.65,6.65,0,0,1-2-2.32,7,7,0,0,1-.71-3.36H9.56A3.93,3.93,0,0,0,9.94,92.33Z"/><path class="cls-3" d="M23.86,80.38V76.5H41.07v3.88h-6.3V97.5H30.15V80.38Z"/><path class="cls-3" d="M54.81,76.5a6.64,6.64,0,0,1,2.54.46,5.74,5.74,0,0,1,1.94,1.25A5.55,5.55,0,0,1,60.53,80,6,6,0,0,1,61,82.3a6.3,6.3,0,0,1-.78,3.2,4.88,4.88,0,0,1-2.54,2.06v.06a3.61,3.61,0,0,1,1.41.72A3.93,3.93,0,0,1,60,89.49a5.2,5.2,0,0,1,.52,1.45,12.4,12.4,0,0,1,.22,1.59c0,.34,0,.73.06,1.18s0,.91.1,1.38a9.11,9.11,0,0,0,.24,1.34,3,3,0,0,0,.48,1.07H57a8.29,8.29,0,0,1-.47-2.38c-.06-.92-.14-1.8-.26-2.65a4.18,4.18,0,0,0-1-2.41,3.45,3.45,0,0,0-2.5-.76H48.1v8.2H43.48v-21ZM53.16,86a3.49,3.49,0,0,0,2.38-.7,2.94,2.94,0,0,0,.8-2.3,2.8,2.8,0,0,0-.8-2.22,3.54,3.54,0,0,0-2.38-.69H48.1V86Z"/><path class="cls-3" d="M75.19,76.5,83,97.5H78.25l-1.59-4.67H68.81L67.16,97.5H62.51l7.94-21Zm.27,12.89-2.65-7.71h-.06L70,89.39Z"/><path class="cls-3" d="M89.49,76.5v21H84.87v-21Z"/><path class="cls-3" d="M106,97.34a7.76,7.76,0,0,1-3,.63,10.94,10.94,0,0,1-4.34-.83,9.34,9.34,0,0,1-3.25-2.31,10.3,10.3,0,0,1-2-3.46,12.68,12.68,0,0,1-.7-4.28,13.13,13.13,0,0,1,.7-4.37,10.53,10.53,0,0,1,2-3.51,9.33,9.33,0,0,1,3.25-2.36A10.77,10.77,0,0,1,103,76a10,10,0,0,1,3.13.49,9,9,0,0,1,2.74,1.42,7.82,7.82,0,0,1,3,5.5H107.4a4.35,4.35,0,0,0-1.59-2.64,4.59,4.59,0,0,0-2.85-.89,5.43,5.43,0,0,0-2.65.61,5,5,0,0,0-1.76,1.61,7.27,7.27,0,0,0-1,2.31,11.91,11.91,0,0,0-.31,2.68,11,11,0,0,0,.31,2.57,7.1,7.1,0,0,0,1,2.26,5.11,5.11,0,0,0,1.76,1.6,5.43,5.43,0,0,0,2.65.6,4.5,4.5,0,0,0,5-4.53h-4.65V86.15h8.83V97.5H109.2l-.47-2.38A7,7,0,0,1,106,97.34Z"/><path class="cls-3" d="M120.49,76.5v8.06H129V76.5h4.62v21H129V88.44h-8.5V97.5h-4.62v-21Z"/><path class="cls-3" d="M136,80.38V76.5h17.21v3.88h-6.29V97.5h-4.62V80.38Z"/><path class="cls-3" d="M173.3,76.5a8.79,8.79,0,0,1,3.35.57,6.38,6.38,0,0,1,2.25,1.52,5.71,5.71,0,0,1,1.26,2.15,8,8,0,0,1,0,5,5.6,5.6,0,0,1-1.26,2.16,6.25,6.25,0,0,1-2.25,1.52,8.79,8.79,0,0,1-3.35.57h-4.86V97.5h-4.62v-21ZM172,86.38a9.5,9.5,0,0,0,1.53-.11,3.47,3.47,0,0,0,1.29-.46,2.32,2.32,0,0,0,.9-1,4,4,0,0,0,0-3.23,2.45,2.45,0,0,0-.9-1,3.65,3.65,0,0,0-1.29-.45,9.49,9.49,0,0,0-1.53-.12h-3.59v6.29Z"/><path class="cls-3" d="M183.24,82.72a10.53,10.53,0,0,1,2-3.51,9.24,9.24,0,0,1,3.25-2.36,11.53,11.53,0,0,1,8.69,0,9.29,9.29,0,0,1,3.24,2.36,10.53,10.53,0,0,1,2,3.51,13.13,13.13,0,0,1,.7,4.37,12.68,12.68,0,0,1-.7,4.28,10.3,10.3,0,0,1-2,3.46,9.3,9.3,0,0,1-3.24,2.31,11.79,11.79,0,0,1-8.69,0,9.25,9.25,0,0,1-3.25-2.31,10.3,10.3,0,0,1-2-3.46,12.69,12.69,0,0,1-.71-4.28A13.13,13.13,0,0,1,183.24,82.72Zm4.22,6.94a6.88,6.88,0,0,0,1,2.26,5,5,0,0,0,1.76,1.6,6.15,6.15,0,0,0,5.3,0,5.11,5.11,0,0,0,1.76-1.6,7.1,7.1,0,0,0,1-2.26,11,11,0,0,0,.31-2.57,11.91,11.91,0,0,0-.31-2.68,7.27,7.27,0,0,0-1-2.31,5,5,0,0,0-1.76-1.61,6.06,6.06,0,0,0-5.3,0,5,5,0,0,0-1.76,1.61,7.06,7.06,0,0,0-1,2.31,11.36,11.36,0,0,0-.31,2.68A10.45,10.45,0,0,0,187.46,89.66Z"/><path class="cls-3" d="M206.12,82.72a10.7,10.7,0,0,1,2-3.51,9.42,9.42,0,0,1,3.25-2.36,11.56,11.56,0,0,1,8.7,0,9.35,9.35,0,0,1,3.23,2.36,10.36,10.36,0,0,1,2,3.51,13.13,13.13,0,0,1,.71,4.37,12.69,12.69,0,0,1-.71,4.28,10.14,10.14,0,0,1-2,3.46,9.35,9.35,0,0,1-3.23,2.31,11.81,11.81,0,0,1-8.7,0,9.43,9.43,0,0,1-3.25-2.31,10.47,10.47,0,0,1-2-3.46,12.68,12.68,0,0,1-.7-4.28A13.13,13.13,0,0,1,206.12,82.72Zm4.23,6.94a6.86,6.86,0,0,0,1,2.26,5.06,5.06,0,0,0,1.77,1.6,6.13,6.13,0,0,0,5.29,0,5.06,5.06,0,0,0,1.77-1.6,6.86,6.86,0,0,0,1-2.26,10.45,10.45,0,0,0,.31-2.57,11.36,11.36,0,0,0-.31-2.68,7,7,0,0,0-1-2.31,5,5,0,0,0-1.77-1.61,6,6,0,0,0-5.29,0,5,5,0,0,0-1.77,1.61,7,7,0,0,0-1,2.31,11.36,11.36,0,0,0-.31,2.68A10.45,10.45,0,0,0,210.35,89.66Z"/><path class="cls-3" d="M233.84,76.5V93.62h10.23V97.5H229.22v-21Z"/><path class="cls-3" d="M258.37,92.33a3.35,3.35,0,0,0,1,1.19,4.32,4.32,0,0,0,1.49.67,6.91,6.91,0,0,0,1.76.23,9,9,0,0,0,1.33-.11,4.5,4.5,0,0,0,1.32-.4,2.81,2.81,0,0,0,1-.8,2,2,0,0,0,.41-1.31,1.88,1.88,0,0,0-.54-1.39,4.41,4.41,0,0,0-1.43-.88,15.34,15.34,0,0,0-2-.62c-.74-.17-1.5-.37-2.26-.58a19.85,19.85,0,0,1-2.3-.73,7.89,7.89,0,0,1-2-1.1,5,5,0,0,1-2-4.15,5.55,5.55,0,0,1,.69-2.81,6.35,6.35,0,0,1,1.81-2,8.05,8.05,0,0,1,2.53-1.18,11,11,0,0,1,2.83-.38,13.14,13.14,0,0,1,3.16.37,7.81,7.81,0,0,1,2.69,1.19,6.09,6.09,0,0,1,1.87,2.1,6.5,6.5,0,0,1,.69,3.11H266a3.65,3.65,0,0,0-.4-1.56,2.48,2.48,0,0,0-.9-1,3.53,3.53,0,0,0-1.28-.5,7.68,7.68,0,0,0-1.57-.15,5.33,5.33,0,0,0-1.12.12,2.91,2.91,0,0,0-1,.41,2.38,2.38,0,0,0-.75.73,2,2,0,0,0-.3,1.12,1.85,1.85,0,0,0,.24,1,2,2,0,0,0,.92.71,13.14,13.14,0,0,0,1.92.65l3.19.82c.39.08.94.22,1.63.43a7.49,7.49,0,0,1,2.07,1,6.27,6.27,0,0,1,1.78,1.81,5.06,5.06,0,0,1,.75,2.9,6.49,6.49,0,0,1-.55,2.68A5.9,5.9,0,0,1,269,96.08a7.8,7.8,0,0,1-2.73,1.39,12.73,12.73,0,0,1-3.78.5,13.47,13.47,0,0,1-3.37-.42,8.48,8.48,0,0,1-2.88-1.34,6.57,6.57,0,0,1-2-2.32,7,7,0,0,1-.7-3.36H258A3.8,3.8,0,0,0,258.37,92.33Z"/><path class="cls-3" d="M278.55,76.5v8.06h8.5V76.5h4.62v21h-4.62V88.44h-8.5V97.5h-4.62v-21Z"/><path class="cls-3" d="M311.44,76.5v3.88H300.35v4.5h10.18v3.59H300.35v5.15h11.32V97.5H295.73v-21Z"/><path class="cls-3" d="M330.5,76.5v3.88H319.41v4.5h10.18v3.59H319.41v5.15h11.32V97.5H314.79v-21Z"/><path class="cls-3" d="M332.2,80.38V76.5h17.21v3.88h-6.29V97.5H338.5V80.38Z"/></svg>