<svg id="Layer_1" data-name="Layer 1" xmlns="http://www.w3.org/2000/svg" viewBox="0 0 349 289"><defs><style>.cls-1{fill:#d58108;}.cls-2{fill:#e6e6e6;}.cls-3{fill:#4d4d4d;}</style></defs><title>Artboard 1 copy 3</title><rect class="cls-1" x="5.75" y="119" width="337.5" height="51"/><path class="cls-2" d="M342.75,119.49v50H6.25v-50h336.5m1-1H5.25v52h338.5v-52Z"/><polygon class="cls-3" points="7.33 171 40 171 40 187.68 7.33 171"/><path class="cls-2" d="M39.5,171.49v15.37L9.41,171.49H39.5m1-1H5.25l35.25,18v-18Z"/><path class="cls-2" d="M29.05,149.68c0-1.47-.73-2.14-2.42-2.89l-1.18-.54c-3.31-1.51-5.21-3.17-5.21-6.27,0-3.36,2.72-5.4,7-5.4A10,10,0,0,1,32.5,136l-.23,3.92H29.7L29,135.7l2.26.8v1.4a6.51,6.51,0,0,0-4-1.66,2.65,2.65,0,0,0-2.89,2.55c0,1.48.89,2.25,2.55,3l1.31.6c3.58,1.62,5,3.16,5,6,0,3.31-2.52,5.65-7.31,5.65a12.19,12.19,0,0,1-6.08-1.47l.17-4.16h2.61l.73,4.53-2.17-.68V150.9A9.09,9.09,0,0,0,26,152.35C28,152.35,29.05,151.2,29.05,149.68Z"/><path class="cls-2" d="M35.24,136.68l2-1.58-.74,5.2H34.2l.1-5.2H50.74l.08,5.2H48.5l-.73-5.2,2,1.58Zm7.85,14.89,4.22.42v1.5H37.72V152l4.14-.42Zm-2.93-7.79c0-2.89,0-5.8-.09-8.68h4.87c-.08,2.83-.08,5.74-.08,8.68v1c0,2.91,0,5.82.08,8.7H40.07c.09-2.82.09-5.74.09-8.68Z"/><path class="cls-2" d="M52.3,136.6v-1.5h4.5V137h-.44Zm4.94,15,4.07.42v1.5h-9V152l4.06-.42Zm-2.79-7.79c0-2.89,0-5.8-.08-8.68h4.79c-.09,2.85-.09,5.71-.09,8.76v.86c0,3,0,5.89.09,8.77H54.37c.08-2.82.08-5.74.08-8.68Zm2.39-.31h3.3c2.78,0,3.63-1.62,3.63-3.42,0-2.26-1.22-3.34-3.5-3.34H56.8V135.1h4.61c4.4,0,6.84,1.74,6.84,4.64,0,2.14-1.59,4.34-6.55,4.61l0-.29c4.42.14,5.53,1.58,6,4.59l.75,4.32-2.3-1.44,4.19.46v1.5a10.62,10.62,0,0,1-3.06.41c-2.38,0-3.79-.69-4.06-2.87l-.52-3.25c-.28-1.89-1-2.74-2.65-2.74H56.84Z"/><path class="cls-2" d="M71,152l2.88-.42h.5l2.66.42v1.5H71Zm8-16.93h2.9l6.29,18.43H83.39l-4.78-15,1-1.41-5.35,16.44H72.65Zm-3,11.46h7.56l.63,1.63H75.5Zm4.71,5.53,3.16-.42h1.87l3.6.42v1.44H80.68Z"/><path class="cls-2" d="M90.52,136.6v-1.5h9v1.5l-4.14.42h-.82Zm4.89,15,4.14.42v1.5h-9V152l4.07-.42Zm-2.73-7.79c0-2.89,0-5.8-.09-8.68h4.87c-.08,2.83-.08,5.74-.08,8.68v1c0,2.91,0,5.82.08,8.7H92.59c.09-2.82.09-5.74.09-8.68Z"/><path class="cls-2" d="M117.05,152.38a12.06,12.06,0,0,1-6.34,1.64c-5.76,0-9.69-3.65-9.69-9.76,0-5.89,3.67-9.68,10-9.68a11.89,11.89,0,0,1,5.43,1.28l.11,4.36h-2.17l-1-4.44,1.93.4v1.47a5.88,5.88,0,0,0-3.77-1.49c-3,0-5.61,2.53-5.61,8.1s2.47,8.17,5.56,8.17a6.05,6.05,0,0,0,3.18-1l-2.13,1.8v-2.13c0-2.27,0-4.39-.08-6.68h4.62c0,2.24-.08,4.46-.08,6.78Zm-7-6.45v-1.5h8.53v1.5l-3.28.45h-1.83Z"/><path class="cls-2" d="M119.61,136.6v-1.5h8.83v1.5l-4.09.42h-.82Zm4.74,15,4.09.42v1.5h-8.83V152l3.92-.42Zm-2.63-7.79c0-2.89,0-5.8-.08-8.68h4.87c-.09,2.83-.09,5.74-.09,8.68v.86c0,3.06,0,6,.09,8.85h-4.87c.08-2.82.08-5.74.08-8.68Zm2.35,1.08v-1.63h10.67v1.63Zm6.31-8.26v-1.5h8.83v1.5l-4,.42h-.78Zm4.8,15,4,.42v1.5h-8.83V152l4-.42Zm-2.79-7.79c0-2.89,0-5.8-.08-8.68h4.87c-.09,2.83-.09,5.74-.09,8.68v1c0,2.89,0,5.8.09,8.68h-4.87c.08-2.82.08-5.74.08-8.85Z"/><path class="cls-2" d="M141.73,136.68l2-1.58-.73,5.2h-2.33l.1-5.2h16.44l.08,5.2H155l-.73-5.2,2,1.58Zm7.85,14.89,4.22.42v1.5h-9.59V152l4.14-.42Zm-2.93-7.79c0-2.89,0-5.8-.09-8.68h4.87c-.08,2.83-.08,5.74-.08,8.68v1c0,2.91,0,5.82.08,8.7h-4.87c.09-2.82.09-5.74.09-8.68Z"/><path class="cls-2" d="M164.6,136.6v-1.5h4.51V137h-.44Zm5.36,15L174,152v1.5H164.6V152l4.07-.42Zm-3.2-7.79c0-2.89,0-5.8-.08-8.68h4.86c-.08,2.83-.08,5.74-.08,8.68v1.71c0,2.29,0,5.12.08,8h-4.86c.08-2.82.08-5.74.08-8.68Zm5.49,2.68h-3.14v-1.57h3.17c2.48,0,3.7-1.72,3.7-4.28s-1.37-3.9-3.81-3.9h-3.06V135.1h3.11c5.84,0,8.16,2.19,8.16,5.53S178.32,146.46,172.25,146.46Z"/><path class="cls-2" d="M199.75,144.3c0,6.45-4.26,9.72-8.88,9.72s-8.9-3.2-8.9-9.72,4.3-9.72,8.9-9.72S199.75,137.77,199.75,144.3Zm-8.88,8.09c2.81,0,3.92-3.45,3.92-8.09s-1.11-8.12-3.92-8.12-3.94,3.49-3.94,8.12S188.05,152.39,190.87,152.39Z"/><path class="cls-2" d="M219.88,144.3c0,6.45-4.26,9.72-8.88,9.72s-8.9-3.2-8.9-9.72,4.3-9.72,8.9-9.72S219.88,137.77,219.88,144.3ZM211,152.39c2.81,0,3.92-3.45,3.92-8.09s-1.11-8.12-3.92-8.12-3.94,3.49-3.94,8.12S208.18,152.39,211,152.39Z"/><path class="cls-2" d="M221.34,136.6v-1.5h9.24v1.5l-4.15.42h-1Zm4.51,15v1.92h-4.51V152l4.07-.42Zm-2.44-16.47h4.87c-.08,2.84-.08,5.75-.08,8.68v1.47c0,2.46,0,5.38.08,8.24h-4.87c.09-2.84.09-5.75.09-8.09v-1.62C223.5,140.88,223.5,138,223.41,135.1ZM236.12,148l-.27,5.48h-10v-1.6h9.06l-2.13,1.6,1.1-5.48Z"/><path class="cls-2" d="M252.75,149.68c0-1.47-.73-2.14-2.42-2.89l-1.18-.54c-3.3-1.51-5.2-3.17-5.2-6.27,0-3.36,2.71-5.4,7-5.4a10,10,0,0,1,5.3,1.42l-.23,3.92H253.4l-.68-4.22,2.25.8v1.4a6.51,6.51,0,0,0-4-1.66,2.65,2.65,0,0,0-2.89,2.55c0,1.48.89,2.25,2.55,3l1.31.6c3.58,1.62,5.05,3.16,5.05,6,0,3.31-2.53,5.65-7.32,5.65a12.19,12.19,0,0,1-6.08-1.47l.17-4.16h2.61l.73,4.53-2.17-.68V150.9a9.12,9.12,0,0,0,4.74,1.45C251.67,152.35,252.75,151.2,252.75,149.68Z"/><path class="cls-2" d="M258.64,136.6v-1.5h8.83v1.5l-4.08.42h-.82Zm4.75,15,4.08.42v1.5h-8.83V152l3.93-.42Zm-2.63-7.79c0-2.89,0-5.8-.08-8.68h4.86c-.08,2.83-.08,5.74-.08,8.68v.86c0,3.06,0,6,.08,8.85h-4.86c.08-2.82.08-5.74.08-8.68Zm2.35,1.08v-1.63h10.67v1.63Zm6.31-8.26v-1.5h8.83v1.5l-4,.42h-.78Zm4.8,15,4,.42v1.5h-8.83V152l4-.42Zm-2.79-7.79c0-2.89,0-5.8-.09-8.68h4.87c-.08,2.83-.08,5.74-.08,8.68v1c0,2.89,0,5.8.08,8.68h-4.87c.09-2.82.09-5.74.09-8.85Z"/><path class="cls-2" d="M280.08,136.6v-1.5h4.5V137h-.44Zm4.5,15v1.92h-4.5V152l4.06-.42Zm-2.35-7.79c0-2.89,0-5.8-.08-8.68H287c-.09,2.83-.09,5.74-.09,8.68v.92c0,3,0,5.91.09,8.79h-4.87c.08-2.82.08-5.74.08-8.68Zm9.18-8.68,2,1.58h-8.86V135.1h9.8l.19,4.82h-2.33Zm-.66,9.73h-6.17v-1.66h6.17Zm4.38,3.84-.19,4.82H284.58v-1.56H294l-2,1.56.83-4.82Zm-5.24-5,.42-2.69h1.63v6h-1.63l-.42-2.82Z"/><path class="cls-2" d="M296.73,136.6v-1.5h4.5V137h-.44Zm4.5,15v1.92h-4.5V152l4.06-.42Zm-2.35-7.79c0-2.89,0-5.8-.08-8.68h4.87c-.09,2.83-.09,5.74-.09,8.68v.92c0,3,0,5.91.09,8.79H298.8c.08-2.82.08-5.74.08-8.68Zm9.18-8.68,2,1.58h-8.86V135.1H311l.19,4.82h-2.33Zm-.66,9.73h-6.17v-1.66h6.17Zm4.38,3.84-.19,4.82H301.23v-1.56h9.42l-2,1.56.83-4.82Zm-5.24-5L307,141h1.63v6H307l-.42-2.82Z"/><path class="cls-2" d="M314.06,136.68l2-1.58-.73,5.2H313l.1-5.2h16.44l.08,5.2h-2.31l-.74-5.2,2,1.58Zm7.86,14.89,4.22.42v1.5h-9.59V152l4.14-.42ZM319,143.78c0-2.89,0-5.8-.08-8.68h4.87c-.09,2.83-.09,5.74-.09,8.68v1c0,2.91,0,5.82.09,8.7H318.9c.08-2.82.08-5.74.08-8.68Z"/><path class="cls-2" d="M133.16,105c0-.82-.45-1.19-1.48-1.61l-.56-.24c-1.53-.66-2.49-1.48-2.49-3,0-1.64,1.35-2.63,3.29-2.63a4.26,4.26,0,0,1,2.46.72l-.1,1.88h-1.06l-.36-2.1,1,.43v.69a2.87,2.87,0,0,0-2-.86,1.48,1.48,0,0,0-1.67,1.42c0,.81.51,1.26,1.43,1.64l.6.26c1.81.75,2.53,1.54,2.53,2.9,0,1.65-1.32,2.73-3.47,2.73a5.73,5.73,0,0,1-2.87-.73l.09-2h1.07l.36,2.2-1-.37v-.66a3.85,3.85,0,0,0,2.32.81C132.45,106.48,133.16,105.89,133.16,105Z"/><path class="cls-2" d="M135.67,106.35l1.47-.21h.34l1.7.21V107h-3.51Zm.8-8.13.83.37-1.59-.17v-.66h2.63l5.39,7.4v1.91h-.82Zm.38-.46.8.66V107h-.8Zm4.55,0h3.51v.65l-1.4.21h-.34l-1.77-.21Zm1.53,0h.8v9.31l-.8-.8Z"/><path class="cls-2" d="M145.79,98.41v-.65h2.1v.86h-.18Zm2.1,7.73V107h-2.1v-.66l1.92-.21Zm-.9-4.06c0-1.43,0-2.88,0-4.32h1.89c0,1.41,0,2.86,0,4.32v.5c0,1.54,0,3,0,4.43H147c0-1.41,0-2.86,0-4.32Zm4.53-4.32.82.74h-4.45v-.74h4.93l.1,2.44h-1Zm-.52,4.87h-3.11v-.74H151Zm2.2,1.94-.1,2.44h-5.21v-.74h4.73l-.82.74.42-2.44Zm-2.63-2.49.21-1.4h.72v3.15h-.72l-.21-1.48Z"/><path class="cls-2" d="M153.71,106.35l1.41-.21h.27l1.42.21V107h-3.1Zm4-8.63h1.15l3.17,9.29h-1.85l-2.59-7.91.43-.36L155.31,107h-.74Zm-1.56,5.71H160l.27.72H156Zm2.54,2.94,1.67-.21H161l1.76.21V107h-4Z"/><path class="cls-2" d="M163.4,98.41v-.65h4.16v.65l-1.89.21h-.35Zm2.27,7.73,1.81.21V107H163.4v-.66l1.92-.21Zm-1.07-4.06c0-1.43,0-2.88,0-4.32h1.82c0,1.41,0,2.86,0,4.32v.83c0,1.21,0,2.66,0,4.1h-1.82c0-1.41,0-2.86,0-4.32Zm.89,1.71,4.9-6h.94l-5.84,7Zm2.86-3,3.39,6.23H169.8l-2.54-4.91Zm.14,5.57,1.78-.21h.26l1.76.21V107h-3.8Zm.26-7.94v-.65H172v.65l-1.58.21-.34,0Z"/><path class="cls-2" d="M172.38,98.41v-.65h4.21v.65l-1.8.21h-.44Zm3.61,5.53-3-6.18H175l2.35,5.17-.46,0,2.43-5.2h.83l-3,6.18Zm.86,2.2,2,.21V107h-4.48v-.66l2-.21Zm-1.12-3.38h1.8c0,1.85,0,3,0,4.25h-1.89C175.73,105.78,175.73,104.63,175.73,102.76Zm3.55-4.14-1.43-.21v-.65h3.05v.65l-1.32.21Z"/><path class="cls-2" d="M184.33,98.41v-.65h2.1v.86h-.18Zm2.38,7.73,1.92.21V107h-4.3v-.66l1.92-.21Zm-1.18-4.06c0-1.43,0-2.88-.05-4.32h1.9c0,1.41,0,2.86,0,4.32v.85c0,1.28,0,2.64,0,4.08h-1.9c.05-1.41.05-2.86.05-4.32Zm2.37,1.33h-1.47v-.71H188a1.93,1.93,0,0,0,2.11-2.18c0-1.32-.71-2-2.16-2h-1.53v-.72h1.67c2.62,0,3.79,1.12,3.79,2.76S190.84,103.41,187.9,103.41Z"/><path class="cls-2" d="M192.57,98.41v-.65h2.1v.86h-.18Zm2.1,7.73V107h-2.1v-.66l1.92-.21Zm-.91-4.06c0-1.43,0-2.88,0-4.32h1.89c0,1.41,0,2.86,0,4.32v.5c0,1.54,0,3,0,4.43h-1.89c0-1.41,0-2.86,0-4.32Zm4.53-4.32.83.74h-4.45v-.74h4.92l.1,2.44h-1Zm-.51,4.87h-3.11v-.74h3.11Zm2.19,1.94-.1,2.44h-5.2v-.74h4.72l-.82.74.42-2.44Zm-2.63-2.49.21-1.4h.72v3.15h-.72l-.21-1.48Z"/><path class="cls-2" d="M200.48,106.35l1.41-.21h.27l1.43.21V107h-3.11Zm4.06-8.63h1.14l3.17,9.29H207l-2.58-7.91.42-.36L202.09,107h-.74ZM203,103.43h3.77l.27.72h-4.26Zm2.55,2.94,1.66-.21h.61l1.76.21V107h-4Z"/><path class="cls-2" d="M210.18,98.41v-.65h4.15v.65l-1.89.21h-.34Zm2.26,7.73,1.82.21V107h-4.08v-.66l1.92-.21Zm-1.07-4.06c0-1.43,0-2.88,0-4.32h1.82c0,1.41,0,2.86,0,4.32v.83c0,1.21,0,2.66,0,4.1h-1.82c0-1.41,0-2.86,0-4.32Zm.9,1.71,4.9-6h.93l-5.83,7Zm2.86-3,3.38,6.23h-1.94L214,102.1Zm.13,5.57,1.78-.21h.26l1.76.21V107h-3.8Zm.26-7.94v-.65h3.22v.65l-1.57.21-.35,0Z"/><polygon class="cls-1" points="113.1 87.24 121.98 90.49 153.09 67.07 159.01 72.92 170.86 56.66 180.48 72.27 190.11 62.52 196.78 80.08 203.44 75.53 207.88 89.84 213.81 76.83 221.21 87.24 236.02 84.63 252.2 107.24 266.26 107.24 239.73 72.27 227.14 80.73 173.82 36.49 121.98 82.68 113.1 77.48 81.25 107.24 92.92 107.24 113.1 87.24"/><polygon class="cls-1" points="174.5 247.06 177.66 253.46 184.72 254.48 179.61 259.46 180.81 266.5 174.5 263.18 168.19 266.5 169.39 259.46 164.28 254.48 171.34 253.46 174.5 247.06"/><polygon class="cls-1" points="193.83 243.5 195.93 247.75 200.62 248.43 197.23 251.74 198.03 256.41 193.83 254.2 189.63 256.41 190.44 251.74 187.04 248.43 191.73 247.75 193.83 243.5"/><polygon class="cls-1" points="155.17 243.5 157.27 247.75 161.96 248.43 158.56 251.74 159.37 256.41 155.17 254.2 150.97 256.41 151.77 251.74 148.38 248.43 153.07 247.75 155.17 243.5"/><rect class="cls-2" x="105.5" y="206.49" width="137" height="1"/><rect class="cls-2" x="222.5" y="101.84" width="20" height="1"/><rect class="cls-2" x="103.5" y="101.49" width="20" height="1"/><path class="cls-2" d="M42.45,92.24A22.56,22.56,0,0,1,53.7,72.76L163.25,9.51a22.54,22.54,0,0,1,22.5,0L295.3,72.76a22.56,22.56,0,0,1,11.25,19.48v26.25h3V92.24A25.55,25.55,0,0,0,296.8,70.16L187.25,6.91a25.57,25.57,0,0,0-25.5,0L52.2,70.16A25.55,25.55,0,0,0,39.45,92.24v26.25h3Z"/><path class="cls-2" d="M303,118.1h-1v-2h1Zm-256,0H46v-2h1Zm256-4h-1v-2h1ZM47,114H46v-2h1Zm256-3.94h-1v-2h1ZM47,110H46v-2h1Zm256-4h-1v-2h1ZM47,106H46v-2h1Zm256-3.94h-1v-2h1ZM47,102H46v-2h1Zm256-4h-1v-2h1ZM47,98H46V96h1Zm255-4c0-.65,0-1.31-.1-2l1-.1c.07.68.1,1.36.11,2ZM47,94H46c0-.68,0-1.37.11-2l1,.09C47,92.72,47,93.38,47,94Zm254.63-3.84c-.12-.64-.27-1.28-.44-1.91l1-.27c.18.66.34,1.33.46,2Zm-254.25,0-1-.19c.12-.66.28-1.33.46-2l1,.27C47.65,88.86,47.5,89.5,47.38,90.14Zm253.21-3.72c-.23-.61-.49-1.22-.77-1.81l.91-.42c.29.61.56,1.25.79,1.88Zm-252.16,0L47.5,86a18.29,18.29,0,0,1,.8-1.88l.9.43C48.92,85.16,48.66,85.76,48.43,86.37Zm250.48-3.49c-.33-.56-.69-1.11-1.07-1.64l.82-.58c.39.55.76,1.13,1.11,1.72Zm-248.79,0-.86-.51c.34-.58.72-1.16,1.11-1.71l.82.58C50.81,81.73,50.45,82.28,50.12,82.84Zm246.52-3.15c-.42-.49-.87-1-1.33-1.43l.7-.71a19.59,19.59,0,0,1,1.39,1.5Zm-244.25,0L51.63,79c.44-.52.91-1,1.39-1.5l.71.71C53.26,78.68,52.81,79.16,52.39,79.66ZM293.86,77c-.5-.42-1-.81-1.56-1.19l.57-.82c.56.39,1.11.81,1.63,1.24Zm-238.68,0-.64-.77c.53-.43,1.08-.84,1.64-1.23l.56.82C56.21,76.1,55.68,76.5,55.18,76.91Zm235.46-2.19-1.73-1,.5-.87,1.73,1Zm-232.23,0-.5-.86,1.73-1,.5.86Zm228.76-2-1.73-1,.5-.87,1.73,1Zm-225.29,0-.5-.86,1.73-1,.5.87Zm221.83-2-1.74-1,.5-.87,1.74,1Zm-218.37,0-.5-.87,1.74-1,.5.87Zm214.9-2-1.74-1,.5-.86,1.74,1Zm-211.43,0-.5-.87,1.73-1,.5.87Zm208-2-1.73-1,.5-.86,1.73,1Zm-204.49,0-.5-.87,1.73-1,.5.86Zm201-2-1.73-1,.5-.87,1.73,1Zm-197.55,0-.5-.86,1.73-1,.5.86Zm194.09-2-1.74-1,.5-.87,1.74,1Zm-190.63,0-.5-.87,1.74-1,.5.87Zm187.16-2-1.74-1,.5-.87,1.74,1Zm-183.69,0-.5-.87,1.73-1,.5.87Zm180.22-2-1.73-1,.5-.86,1.73,1Zm-176.75,0-.5-.87,1.73-1,.5.87Zm173.28-2-1.73-1,.5-.86,1.73,1Zm-169.81,0-.5-.87,1.73-1,.5.86ZM256,54.7l-1.74-1,.5-.87,1.74,1Zm-162.89,0-.5-.86,1.74-1,.5.86Zm159.42-2-1.74-1,.5-.87,1.74,1Zm-155.95,0-.5-.86,1.74-1,.5.87ZM249,50.7l-1.73-1,.5-.87,1.73,1Zm-149,0-.5-.87,1.73-1,.5.87Zm145.54-2-1.73-1,.5-.86,1.73,1Zm-142.07,0-.5-.87,1.73-1,.5.87Zm138.61-2-1.74-1,.5-.86,1.74,1ZM107,46.67l-.5-.87,1.74-1,.5.86Zm131.68-2-1.74-1,.5-.87,1.74,1Zm-128.21,0-.5-.86,1.74-1,.5.86Zm124.74-2-1.73-1,.5-.87,1.73,1Zm-121.27,0-.5-.86,1.73-1,.5.87Zm117.8-2-1.73-1,.5-.87,1.73,1Zm-114.33,0-.5-.87,1.73-1,.5.87Zm110.87-2-1.74-1,.5-.86,1.74,1Zm-107.41,0-.5-.87,1.74-1,.5.87Zm103.94-2-1.74-1,.5-.86,1.74,1Zm-100.47,0-.5-.87,1.74-1,.5.86Zm97-2-1.73-1,.5-.87,1.73,1Zm-93.53,0-.5-.86,1.73-1,.5.86Zm90.06-2-1.73-1,.5-.87,1.73,1Zm-86.59,0-.5-.86,1.73-1,.5.87Zm83.12-2-1.73-1,.5-.87,1.73,1Zm-79.66,0-.5-.87,1.74-1,.5.87Zm76.2-2-1.74-1,.5-.86,1.74,1Zm-72.73,0-.5-.87,1.74-1,.5.87Zm69.26-2-1.73-1,.5-.86,1.73,1Zm-65.79,0-.5-.87,1.73-1,.5.86Zm62.32-2-1.73-1,.5-.87,1.73,1Zm-58.85,0-.5-.86,1.73-1,.5.86Zm55.38-2-1.73-1,.5-.87,1.73,1Zm-51.92,0-.5-.86,1.74-1,.5.87Zm48.46-2-1.74-1,.5-.87,1.74,1Zm-45,0-.5-.87,1.74-1,.5.87Zm41.52-2-1.73-1,.5-.87,1.73,1Zm-38.05,0-.5-.87,1.73-1,.5.87Zm34.58-2-1.73-1,.5-.86,1.73,1Zm-31.11,0-.5-.87,1.73-1,.5.86Zm27.64-2-.86-.5-.86-.47.46-.89.9.5.86.5Zm-24.18,0-.5-.86.82-.47c.31-.18.63-.36.95-.52l.46.89c-.31.15-.61.32-.91.49Zm20.69-1.77c-.61-.25-1.23-.47-1.84-.67l.3-.95c.64.2,1.29.44,1.92.7Zm-17.18,0-.38-.92c.62-.26,1.27-.5,1.92-.7l.3,1C167.16,12.37,166.54,12.59,165.94,12.84Zm13.44-1.15c-.63-.15-1.28-.26-1.92-.35l.13-1c.67.09,1.35.21,2,.36Zm-9.71,0-.22-1c.67-.15,1.34-.27,2-.36l.13,1C171,11.42,170.3,11.53,169.67,11.67Zm5.84-.5c-.34,0-.67,0-1,0l-.95,0,0-1c.34,0,.66,0,1,0l1,0Z"/><path class="cls-2" d="M126.64,190.18a3.19,3.19,0,0,1-3.12,3.48,3.16,3.16,0,0,1-3.11-3.48,3.13,3.13,0,1,1,6.23,0Zm-3.12,2.94c1.21,0,1.7-1.36,1.7-2.94s-.49-3-1.7-3-1.7,1.37-1.7,3S122.32,193.12,123.52,193.12Zm-.67.36v-.3l1.26.1c-.1,1.05.4,1.67,1.24,1.67a2.23,2.23,0,0,0,.75-.12l.17.46a2.5,2.5,0,0,1-1.31.32A2,2,0,0,1,122.85,193.48Z"/><path class="cls-2" d="M129.09,191.79c0,.75.23,1,.67,1a2,2,0,0,0,1.35-.79h.3v.59h-.58l.33-.22a2.31,2.31,0,0,1-1.93,1.26c-.83,0-1.36-.48-1.35-1.8l0-2.67.27.26-.91-.2v-.39l1.74-.21.13.1,0,1.41Zm1.92,1.8-.11-1.17,0-3.25.26.26-.9-.2v-.37l1.71-.23.13.1,0,1.41v3.16l-.45-.44,1.06.23v.41Z"/><path class="cls-2" d="M135.17,190.79c.41-.13,1.08-.32,1.57-.42v.39a9.21,9.21,0,0,0-1.32.4c-.68.27-.88.63-.88,1a.67.67,0,0,0,.71.74c.27,0,.45-.11.92-.45l.3-.23.12.18-.35.38c-.55.55-.87.85-1.54.85a1.21,1.21,0,0,1-1.32-1.27C133.38,191.73,133.72,191.26,135.17,190.79Zm1,1.84v-2.4c0-.93-.23-1.18-.88-1.18a2.84,2.84,0,0,0-.91.16l.54-.35-.16.78c-.06.48-.3.69-.63.69a.52.52,0,0,1-.56-.45c.12-.79.89-1.31,2.12-1.31s1.66.51,1.66,1.81v2.18c0,.32.11.44.29.44a.42.42,0,0,0,.35-.22l.23.2a1,1,0,0,1-1,.64A1,1,0,0,1,136.12,192.63Z"/><path class="cls-2" d="M140.24,186.17l.15.09,0,1.41v3.73c0,.7,0,1.39,0,2.09h-1.26c0-.7,0-1.39,0-2.09v-4.3l-.73-.1v-.38Zm.81,6.92v.4h-2.6v-.4l1-.2H140Z"/><path class="cls-2" d="M142.25,193.49c0-.45,0-1.47,0-2.09v-.48c0-.55,0-.86,0-1.26l-.71-.09v-.37l1.8-.63.16.1,0,1.4v1.33c0,.62,0,1.64,0,2.09Zm1.84-.4v.4h-2.47v-.4l1-.2h.48Zm-2-6.17a.76.76,0,1,1,.76.72A.72.72,0,0,1,142.11,186.92Z"/><path class="cls-2" d="M146.94,193a1,1,0,0,0,.61-.25l.24.26a1.47,1.47,0,0,1-1.32.66,1.13,1.13,0,0,1-1.28-1.27c0-.29,0-.53,0-.92v-2.14h-.74v-.51l1.21-.16-.49.37.47-1.68h.81l-.06,1.77v3.16C146.4,192.76,146.62,193,146.94,193Zm.67-4.26v.6h-1.8v-.6Z"/><path class="cls-2" d="M147.79,195.22a.71.71,0,0,1,.75-.53,1,1,0,0,1,.79.41l.31.39-.38.19-.29-.19a2.88,2.88,0,0,0,1.22-1.61l.42-1.2,1.42-4h.6l-1.9,5c-.59,1.54-1.09,2.26-2,2.26A.89.89,0,0,1,147.79,195.22Zm1-6-.94-.16v-.39h2.61v.4l-1,.15Zm1.58,4.81-2.21-5.36h1.33l1.45,4Zm1.7-4.82-1-.15v-.39H153v.39l-.79.15Z"/><path class="cls-2" d="M155.64,187.33v-.47h1.51v.62H157Zm1.51,5.55v.61h-1.51V193l1.38-.15Zm-.65-2.9c0-1,0-2.08,0-3.12h1.34c0,1,0,2.07,0,3.12v.3c0,1.13,0,2.18,0,3.21h-1.34c0-1,0-2.06,0-3.11Zm.65-.18h1c1,0,1.49-.4,1.49-1.25s-.44-1.17-1.35-1.17h-1.18v-.52h1.55c1.53,0,2.25.68,2.25,1.6,0,.76-.5,1.42-2,1.59V190c1.67.12,2.34.78,2.34,1.7s-.68,1.83-2.88,1.83h-1.28V193h1.13c1.1,0,1.69-.47,1.69-1.33s-.54-1.35-1.74-1.35h-1.08Z"/><path class="cls-2" d="M162.61,193.49c0-.45,0-1.47,0-2.09v-.48c0-.55,0-.86,0-1.26l-.71-.09v-.37l1.8-.63.16.1,0,1.4v1.33c0,.62,0,1.64,0,2.09Zm1.84-.4v.4H162v-.4l1-.2h.48Zm-2-6.17a.76.76,0,1,1,.76.72A.72.72,0,0,1,162.47,186.92Z"/><path class="cls-2" d="M166.77,186.17l.15.09,0,1.41v3.73c0,.7,0,1.39,0,2.09h-1.27c0-.7,0-1.39,0-2.09v-4.3L165,187v-.38Zm.81,6.92v.4H165v-.4l1-.2h.48Z"/><path class="cls-2" d="M169.87,186.17l.15.09,0,1.41v3.73c0,.7,0,1.39,0,2.09h-1.27c0-.7,0-1.39,0-2.09v-4.3l-.72-.1v-.38Zm.8,6.92v.4h-2.59v-.4l1-.2h.48Z"/><path class="cls-2" d="M173,190.79c.42-.13,1.09-.32,1.57-.42v.39a9.63,9.63,0,0,0-1.32.4c-.67.27-.87.63-.87,1a.66.66,0,0,0,.7.74c.27,0,.45-.11.92-.45l.3-.23.13.18-.36.38c-.54.55-.87.85-1.53.85a1.21,1.21,0,0,1-1.33-1.27C171.2,191.73,171.55,191.26,173,190.79Zm.95,1.84v-2.4c0-.93-.22-1.18-.87-1.18a2.85,2.85,0,0,0-.92.16l.55-.35-.17.78c-.05.48-.29.69-.62.69a.52.52,0,0,1-.56-.45c.12-.79.89-1.31,2.11-1.31s1.66.51,1.66,1.81v2.18c0,.32.11.44.3.44s.23-.07.35-.22l.23.2a1,1,0,0,1-1,.64A1,1,0,0,1,173.94,192.63Z"/><path class="cls-2" d="M177,191.4v-.53c0-.55,0-.81,0-1.21l-.7-.09v-.37l1.67-.63.16.1.1,1.24v1.49c0,.62,0,1.64,0,2.09H177C177,193,177,192,177,191.4Zm-.65,1.69,1-.2H178l1,.2v.4h-2.68Zm1.28-3h.66l-.19.17c.25-1.08.9-1.66,1.49-1.66a.79.79,0,0,1,.8.54c0,.5-.25.77-.65.77a.9.9,0,0,1-.69-.35l-.28-.31.45,0a2.35,2.35,0,0,0-1,1.48l-.56,0Z"/><path class="cls-2" d="M183.15,192.92c.5,0,.84-.29,1.22-.82l.11.21a2,2,0,0,1-1.81,1.33c-1.18,0-2-.95-2-2.5a2.31,2.31,0,0,1,2.16-2.57c.73,0,1.18.35,1.67,1.19l-.1.22c-.49-.51-.83-.71-1.22-.71-.68,0-1.23.58-1.23,1.85S182.44,192.92,183.15,192.92Zm2.74.17v.4l-1.75.11-.11-.95v-3.13l0-.12v-2.3l-.78-.1v-.38l1.83-.45.15.09,0,1.41v5.82l-.42-.61Z"/><path class="cls-2" d="M192.05,192c0-.58-.32-.85-1.05-1.15l-.41-.17c-1.1-.47-1.79-1.06-1.79-2.12s1-1.89,2.37-1.89a3.08,3.08,0,0,1,1.76.51l-.07,1.36h-.76l-.26-1.51.72.3v.5a2.05,2.05,0,0,0-1.41-.62,1.06,1.06,0,0,0-1.19,1c0,.57.36.9,1,1.17l.43.18c1.3.54,1.81,1.11,1.81,2.09,0,1.17-.94,1.95-2.49,1.95a4.15,4.15,0,0,1-2-.52l.06-1.45h.77l.26,1.58-.72-.26v-.48a2.77,2.77,0,0,0,1.67.59C191.55,193.12,192.05,192.69,192.05,192Z"/><path class="cls-2" d="M193.94,191.1a2.41,2.41,0,1,1,4.82,0,2.41,2.41,0,1,1-4.82,0Zm3.52,0c0-1.38-.4-2.06-1.11-2.06s-1.11.68-1.11,2.06.39,2,1.11,2S197.46,192.5,197.46,191.11Z"/><path class="cls-2" d="M200.16,189.31h-.74v-.51l1.16-.15-.42.22a3.22,3.22,0,0,1,.78-2.17,2.13,2.13,0,0,1,1.54-.63c.51,0,1,.16,1.07.62a.59.59,0,0,1-.66.56,1,1,0,0,1-.8-.5l-.37-.36.91-.21.17.3a.69.69,0,0,0-.36-.13,1,1,0,0,0-.79.53,4,4,0,0,0-.28,2.28v2.24c0,.7,0,1.39,0,2.09h-1.26c0-.7,0-1.39,0-2.09Zm2.06,3.78v.4h-2.76v-.4l1.06-.2h.62Zm.36-4.38v.6h-1.81v-.6Zm.61,2.74v-2.14h-.93v-.6h1.4l-.42.3.48-1.68h.72l-.05,1.77v3.16c0,.5.22.71.54.71a1,1,0,0,0,.61-.25l.23.26a1.44,1.44,0,0,1-1.31.66,1.13,1.13,0,0,1-1.28-1.27C203.18,192.08,203.19,191.84,203.19,191.45Zm.6-2.74h1.81v.6h-1.81Z"/><path class="cls-2" d="M206.78,189.29l-1-.17v-.41h2.45v.41l-1.11.17Zm3.52-.58,1.31,3.7-.25-.06,1.15-3.64h.64l-1.68,4.82h-.55a36.2,36.2,0,0,1-1.4-4l.4,0-1.46,4h-.55l-1.78-4.82h1.27l1.2,3.7-.22-.06,1.29-3.64Zm-1.49.41v-.41h2.33v.41l-1,.17h-.31Zm3.76.15-.88-.15v-.41h1.82v.41l-.76.15Z"/><path class="cls-2" d="M215.56,190.79c.42-.13,1.09-.32,1.57-.42v.39a9.63,9.63,0,0,0-1.32.4c-.67.27-.87.63-.87,1a.66.66,0,0,0,.7.74c.27,0,.45-.11.92-.45l.31-.23.12.18-.36.38c-.54.55-.87.85-1.53.85a1.21,1.21,0,0,1-1.33-1.27C213.77,191.73,214.12,191.26,215.56,190.79Zm.95,1.84v-2.4c0-.93-.22-1.18-.87-1.18a2.85,2.85,0,0,0-.92.16l.55-.35-.17.78c0,.48-.29.69-.62.69a.52.52,0,0,1-.56-.45c.12-.79.89-1.31,2.11-1.31s1.66.51,1.66,1.81v2.18c0,.32.11.44.3.44s.23-.07.35-.22l.23.2a1,1,0,0,1-1,.64A1,1,0,0,1,216.51,192.63Z"/><path class="cls-2" d="M219.56,191.4v-.53c0-.55,0-.81,0-1.21l-.7-.09v-.37l1.67-.63.16.1.1,1.24v1.49c0,.62,0,1.64,0,2.09h-1.26C219.55,193,219.56,192,219.56,191.4Zm-.65,1.69,1-.2h.63l1,.2v.4h-2.68Zm1.28-3h.66l-.19.17c.25-1.08.9-1.66,1.49-1.66a.77.77,0,0,1,.79.54c0,.5-.24.77-.64.77a.9.9,0,0,1-.69-.35l-.28-.31.45,0a2.35,2.35,0,0,0-1,1.48l-.56,0Z"/><path class="cls-2" d="M227.61,190.58a2.11,2.11,0,0,1-.07.55h-3.8v-.48h2.13c.47,0,.59-.2.59-.56a.94.94,0,0,0-.89-1c-.52,0-1.08.5-1.08,1.93,0,1.25.62,1.86,1.49,1.86a1.68,1.68,0,0,0,1.31-.62l.29.25a2.12,2.12,0,0,1-2,1.17,2.27,2.27,0,0,1-2.35-2.51,2.43,2.43,0,0,1,2.43-2.56A1.88,1.88,0,0,1,227.61,190.58Z"/><circle class="cls-1" cx="113.5" cy="190.49" r="1.5"/><circle class="cls-1" cx="234.5" cy="190.49" r="1.5"/><path class="cls-1" d="M110.5,190.49a1.37,1.37,0,0,0,1,1.27,6.62,6.62,0,0,1-1.48-.32,10.27,10.27,0,0,0-2.4-.54c-1.65-.24-5.17-.43-5.17-.43s3.52-.19,5.17-.44a10.88,10.88,0,0,0,2.4-.53,6.44,6.44,0,0,1,1.48-.33A1.46,1.46,0,0,0,110.5,190.49Z"/><path class="cls-1" d="M237.45,190.49a1.37,1.37,0,0,1-1,1.27,6.62,6.62,0,0,0,1.48-.32,10.27,10.27,0,0,1,2.4-.54c1.65-.24,5.17-.43,5.17-.43s-3.52-.19-5.17-.44a10.88,10.88,0,0,1-2.4-.53,6.44,6.44,0,0,0-1.48-.33A1.46,1.46,0,0,1,237.45,190.49Z"/><path class="cls-2" d="M306.55,196.76a22.56,22.56,0,0,1-11.25,19.48L185.75,279.49a22.54,22.54,0,0,1-22.5,0L53.7,216.24a22.56,22.56,0,0,1-11.25-19.48V170.51h-3v26.25A25.55,25.55,0,0,0,52.2,218.84l109.55,63.25a25.57,25.57,0,0,0,25.5,0L296.8,218.84a25.55,25.55,0,0,0,12.75-22.08V170.51h-3Z"/><path class="cls-2" d="M46,170.9h1v2H46Zm256,0h1v2h-1Zm-256,4h1v2H46ZM302,175h1v2h-1ZM46,178.9h1v2H46ZM302,179h1v2h-1ZM46,182.91h1v2H46ZM302,183h1v2h-1ZM46,186.91h1v2H46ZM302,187h1v2h-1ZM46,190.92h1v2H46ZM302,191h1v2h-1ZM47,194.92c0,.65,0,1.31.1,2l-1,.1c-.07-.68-.1-1.36-.11-2.05ZM302,195h1c0,.68-.05,1.37-.11,2l-1-.09C302,196.28,302,195.62,302,195ZM47.37,198.81c.12.64.27,1.28.44,1.91l-1,.27c-.18-.66-.34-1.33-.46-2Zm254.25.05,1,.19c-.12.66-.28,1.33-.46,2l-1-.27C301.35,200.14,301.5,199.5,301.62,198.86ZM48.41,202.58c.23.61.49,1.22.77,1.81l-.91.42c-.29-.61-.56-1.25-.79-1.88Zm252.16,0,.93.35a18.29,18.29,0,0,1-.8,1.88l-.9-.43C300.08,203.84,300.34,203.24,300.57,202.63ZM50.09,206.12c.33.56.69,1.11,1.07,1.64l-.82.58c-.39-.55-.76-1.13-1.11-1.72Zm248.79,0,.86.51c-.34.58-.72,1.16-1.11,1.71l-.82-.58C298.19,207.27,298.55,206.72,298.88,206.16ZM52.36,209.31c.42.49.87,1,1.33,1.43l-.7.71A19.59,19.59,0,0,1,51.6,210Zm244.25,0,.76.65c-.44.52-.91,1-1.39,1.5l-.71-.71C295.74,210.32,296.19,209.84,296.61,209.34ZM55.14,212.05c.5.42,1,.81,1.56,1.19l-.57.82c-.56-.39-1.11-.81-1.63-1.24Zm238.68,0,.64.77c-.53.43-1.08.84-1.64,1.23l-.56-.82C292.79,212.9,293.32,212.5,293.82,212.09ZM58.36,214.28l1.73,1-.5.87-1.73-1Zm232.23,0,.5.86-1.73,1-.5-.86Zm-228.76,2,1.73,1-.5.87-1.73-1Zm225.29,0,.5.86-1.73,1-.5-.87Zm-221.83,2,1.74,1-.5.87-1.74-1Zm218.37,0,.5.87-1.74,1-.5-.87Zm-214.9,2,1.74,1-.5.86-1.74-1Zm211.43,0,.5.87-1.73,1-.5-.87Zm-208,2,1.73,1-.5.86-1.73-1Zm204.49,0,.5.87-1.73,1-.5-.86Zm-201,2,1.73,1-.5.87-1.73-1Zm197.55,0,.5.86-1.73,1-.5-.86Zm-194.09,2,1.74,1-.5.87-1.74-1Zm190.63,0,.5.87-1.74,1-.5-.87Zm-187.16,2,1.74,1-.5.87-1.74-1Zm183.69,0,.5.87-1.73,1-.5-.87Zm-180.22,2,1.73,1-.5.86-1.73-1Zm176.75,0,.5.87-1.73,1-.5-.87Zm-173.28,2,1.73,1-.5.86-1.73-1Zm169.81,0,.5.87-1.73,1-.5-.86ZM93,234.3l1.74,1-.5.87-1.74-1Zm162.89,0,.5.86-1.74,1-.5-.86Zm-159.42,2,1.74,1-.5.87-1.74-1Zm156,0,.5.86-1.73,1-.5-.87ZM100,238.3l1.73,1-.5.87-1.73-1Zm149,0,.5.87-1.73,1-.5-.87Zm-145.54,2,1.73,1-.5.86-1.73-1Zm142.07,0,.5.87-1.73,1-.5-.87Zm-138.61,2,1.74,1-.5.86-1.74-1Zm135.15,0,.5.87-1.74,1-.5-.86Zm-131.68,2,1.74,1-.5.87-1.74-1Zm128.21,0,.5.86-1.73,1-.5-.86Zm-124.74,2,1.73,1-.5.87-1.73-1Zm121.27,0,.5.86-1.73,1-.5-.87Zm-117.8,2,1.73,1-.5.87-1.73-1Zm114.33,0,.5.87-1.73,1-.5-.87Zm-110.87,2,1.74,1-.5.86-1.74-1Zm107.41,0,.5.87-1.74,1-.5-.87Zm-103.94,2,1.74,1-.5.86-1.74-1Zm100.47,0,.5.87-1.74,1-.5-.86Zm-97,2,1.73,1-.5.87-1.73-1Zm93.53,0,.5.86-1.73,1-.5-.86Zm-90.06,2,1.73,1-.5.87-1.73-1Zm86.59,0,.5.86-1.73,1-.5-.87Zm-83.12,2,1.73,1-.5.87-1.73-1Zm79.66,0,.5.87-1.74,1-.5-.87Zm-76.2,2,1.74,1-.5.86-1.74-1Zm72.73,0,.5.87-1.74,1-.5-.87Zm-69.26,2,1.73,1-.5.86-1.73-1Zm65.79,0,.5.87-1.73,1-.5-.86Zm-62.32,2,1.73,1-.5.87-1.73-1Zm58.85,0,.5.86-1.73,1-.5-.86Zm-55.38,2,1.73,1-.5.87-1.73-1Zm51.92,0,.5.86-1.74,1-.5-.87Zm-48.46,2,1.74,1-.5.87-1.74-1Zm45,0,.5.87-1.74,1-.5-.87Zm-41.52,2,1.73,1-.5.87-1.73-1Zm38.05,0,.5.87-1.73,1-.5-.87Zm-34.58,2,1.73,1-.5.86-1.73-1Zm31.11,0,.5.87-1.73,1-.5-.86Zm-27.64,2,.86.5.86.47-.46.89-.9-.5-.86-.5Zm24.18,0,.5.86-.82.47c-.31.18-.63.36-.95.52l-.46-.89c.31-.15.61-.32.91-.49Zm-20.68,1.77c.6.25,1.22.47,1.83.67l-.3.95c-.64-.2-1.29-.44-1.92-.7Zm17.17,0,.38.92c-.62.26-1.27.5-1.92.7l-.3-1C181.84,276.63,182.46,276.41,183.06,276.16Zm-13.44,1.15c.63.15,1.28.26,1.92.35l-.13,1c-.67-.09-1.35-.21-2-.36Zm9.71,0,.22,1c-.67.15-1.34.27-2,.36l-.13-1C178.05,277.58,178.7,277.47,179.33,277.33Zm-5.84.5c.34,0,.67,0,1,0l.95,0,.05,1c-.35,0-.67,0-1,0l-1,0Z"/><polygon class="cls-3" points="309 118 309 101.31 341.67 118 309 118"/><path class="cls-2" d="M309.5,102.13l30.09,15.36H309.5V102.13m-1-1.64v18h35.25l-35.25-18Z"/></svg>