<svg id="Layer_2" data-name="Layer 2" xmlns="http://www.w3.org/2000/svg" viewBox="0 0 50 50"><defs><style>.cls-1{fill:#e6e6e6;}</style></defs><title>player</title><path class="cls-1" d="M15.49,10A7.5,7.5,0,1,0,23,17.5,7.5,7.5,0,0,0,15.49,10Zm4.42,9.79h-5v1a1,1,0,0,1-1,1,1,1,0,0,1-.55-.16l-3-2a1,1,0,0,1-.45-.84v-.06a.44.44,0,0,1,0-.1.5.5,0,0,1,0-.12,1,1,0,0,1,1-.78h9a1,1,0,1,1,0,2Zm1-3.86,0,.12a1,1,0,0,1-.95.78h-9a1,1,0,0,1,0-2h5v-1A1,1,0,0,1,17.46,13l3,2a1,1,0,0,1,.45.83s0,0,0,0v0S20.89,15.9,20.89,15.93Z"/><path class="cls-1" d="M32.68,26.69a8.41,8.41,0,0,0-.81-8.63,4.49,4.49,0,0,1,6.19,6.47,7.78,7.78,0,0,1,2.23,2.39,11.49,11.49,0,0,1,1.58,5.94c0,.34,0,.67,0,1a12.69,12.69,0,0,1-5,1.57,17.08,17.08,0,0,0-2.24-6.32A13.78,13.78,0,0,0,32.68,26.69Z"/><path class="cls-1" d="M32.49,30.38a10.33,10.33,0,0,0-3-3.23A6,6,0,0,0,25,17H25c0,.33.05.66.05,1a9.53,9.53,0,0,1-5,8.37A5.64,5.64,0,0,0,21,27.49,10.38,10.38,0,0,0,18.64,30a15.2,15.2,0,0,0-2.36,8.36c0,.62,0,.23.1.83A20,20,0,0,0,25,41a18.87,18.87,0,0,0,9.51-2.27c0-.45.06.1.06-.36A15.42,15.42,0,0,0,32.49,30.38Z"/></svg>