<svg id="Layer_2" data-name="Layer 2" xmlns="http://www.w3.org/2000/svg" viewBox="0 0 50 50"><defs><style>.cls-1{fill:#e6e6e6;}</style></defs><title>undo</title><path class="cls-1" d="M17.48,10A7.5,7.5,0,1,0,25,17.5,7.5,7.5,0,0,0,17.48,10Zm.39,12.63h0a1,1,0,0,1,0-2,3.3,3.3,0,1,0-3.16-4.55.94.94,0,0,1,.86.07,1,1,0,0,1,.33,1.37l-1.58,2.57a1,1,0,0,1-1.7,0L11,17.52a1,1,0,0,1,.33-1.37,1,1,0,0,1,1.2.14,5.29,5.29,0,1,1,5.37,6.34Z"/><path class="cls-1" d="M25,10c-.53,0-1.06,0-1.58.08A9.5,9.5,0,0,1,25.24,12,13,13,0,1,1,12,25.24a9.79,9.79,0,0,1-1.93-1.82c-.05.52-.08,1-.08,1.58A15,15,0,1,0,25,10Z"/></svg>